<svg width="256" height="256" viewBox="0 0 256 256" fill="none" xmlns="http://www.w3.org/2000/svg">
  <defs>
    <linearGradient id="bgGradient" x1="40" y1="24" x2="220" y2="236" gradientUnits="userSpaceOnUse">
      <stop stop-color="#0F2741" />
      <stop offset="0.55" stop-color="#081423" />
      <stop offset="1" stop-color="#04111D" />
    </linearGradient>
    <linearGradient id="accentGradient" x1="86" y1="62" x2="178" y2="194" gradientUnits="userSpaceOnUse">
      <stop stop-color="#51E5FF" />
      <stop offset="1" stop-color="#39F3B2" />
    </linearGradient>
    <filter id="glow" x="44" y="44" width="168" height="168" filterUnits="userSpaceOnUse" color-interpolation-filters="sRGB">
      <feFlood flood-opacity="0" result="BackgroundImageFix"/>
      <feBlend mode="normal" in="SourceGraphic" in2="BackgroundImageFix" result="shape"/>
      <feGaussianBlur stdDeviation="10" result="effect1_foregroundBlur"/>
    </filter>
  </defs>

  <rect x="12" y="12" width="232" height="232" rx="64" fill="url(#bgGradient)"/>
  <rect x="18" y="18" width="220" height="220" rx="58" stroke="#9DC2EC" stroke-opacity="0.22" stroke-width="2"/>
  <circle cx="196" cy="58" r="18" fill="#39F3B2" fill-opacity="0.18"/>
  <circle cx="66" cy="204" r="26" fill="#51E5FF" fill-opacity="0.12"/>

  <g filter="url(#glow)">
    <path d="M127.5 58L184 190H158L146 160H110L98 190H72L127.5 58ZM118 139H138L128 112L118 139Z" fill="url(#accentGradient)"/>
  </g>

  <path d="M127.5 58L184 190H158L146 160H110L98 190H72L127.5 58ZM118 139H138L128 112L118 139Z" fill="url(#accentGradient)"/>
</svg>
